inDegrees=no
num_controls=7
num_derivatives=13
num_iterations=78
num_multipliers=7
num_parameters=0
num_slacks=7
num_states=26
objective=0.312488
objective_accelerations=0.054937
objective_balance=0.002209
objective_effort=0.038062
objective_height=0.215721
objective_ligament=0.001559
solver_duration=911.275347
status=Solve_Succeeded
success=true
DataType=double
version=3
OpenSimVersion=4.5
endheader
time	/jointset/ground_pelvis/pelvis_tilt/value	/jointset/ground_pelvis/pelvis_tx/value	/jointset/ground_pelvis/pelvis_ty/value	/jointset/hip_r/hip_flexion_r/value	/jointset/hip_r/hip_adduction_r/value	/jointset/hip_r/hip_rotation_r/value	/jointset/back/lumbar_extension/value	/jointset/patellofemoral_r/patellar_flexion_r/value	/jointset/knee_r/knee_flexion_r/value	/jointset/knee_r/knee_adduction_r/value	/jointset/knee_r/knee_rotation_r/value	/jointset/ankle_r/ankle_angle_r/value	/jointset/subtalar_r/subtalar_angle_r/value	/jointset/ground_pelvis/pelvis_tilt/speed	/jointset/ground_pelvis/pelvis_tx/speed	/jointset/ground_pelvis/pelvis_ty/speed	/jointset/hip_r/hip_flexion_r/speed	/jointset/hip_r/hip_adduction_r/speed	/jointset/hip_r/hip_rotation_r/speed	/jointset/back/lumbar_extension/speed	/jointset/patellofemoral_r/patellar_flexion_r/speed	/jointset/knee_r/knee_flexion_r/speed	/jointset/knee_r/knee_adduction_r/speed	/jointset/knee_r/knee_rotation_r/speed	/jointset/ankle_r/ankle_angle_r/speed	/jointset/subtalar_r/subtalar_angle_r/speed	/forceset/tau_hip_flexion_r	/forceset/tau_hip_adduction_r	/forceset/tau_hip_rotation_r	/forceset/tau_knee_flexion_r	/forceset/tau_ankle_angle_r	/forceset/tau_subtalar_angle_r	/forceset/tau_lumbar_extension	lambda_cid13_p0	lambda_cid14_p0	lambda_cid14_p1	lambda_cid14_p2	lambda_cid14_p3	lambda_cid14_p4	lambda_cid14_p5	/jointset/ground_pelvis/pelvis_tilt/accel	/jointset/ground_pelvis/pelvis_tx/accel	/jointset/ground_pelvis/pelvis_ty/accel	/jointset/hip_r/hip_flexion_r/accel	/jointset/hip_r/hip_adduction_r/accel	/jointset/hip_r/hip_rotation_r/accel	/jointset/back/lumbar_extension/accel	/jointset/patellofemoral_r/patellar_flexion_r/accel	/jointset/knee_r/knee_flexion_r/accel	/jointset/knee_r/knee_adduction_r/accel	/jointset/knee_r/knee_rotation_r/accel	/jointset/ankle_r/ankle_angle_r/accel	/jointset/subtalar_r/subtalar_angle_r/accel	gamma_cid13_p0	gamma_cid14_p0	gamma_cid14_p1	gamma_cid14_p2	gamma_cid14_p3	gamma_cid14_p4	gamma_cid14_p5
0	-0.006887260440993108	0.1316069924676012	0.933267103217477	0.1934211968871041	-0.2295322358465632	-0.2329735519634286	-0.2903787966825928	0.2311786273363387	0.2311786273363406	0.1362293049653395	0.1656914344036667	0.089344008118978	0.06206455604518521	0	0	0	0	0	0	0	0	0	0	0	0	0	0.1364647991306492	-0.07066215262988824	0.004664298714677436	-0.2492500167954463	0.1112034384676835	-0.09049335547082807	-0.06132136134877149	-29.7078857622006	-9.451185114982255	-36.11898613492731	0.655142290108313	15.00721158979911	-583.7550213988179	44.0378223572486	-3.566528934823716	-2.906602615840356	-1.375595331089722	16.38215651299882	0.1176648737703987	3.401308941442711	-8.069377733813416	16.04651452443563	16.04651452443854	-4.322948790668651	0.7449158297546836	4.328922506937518	1.349574690389489	1.218432527311041e-07	7.43640390042306e-08	-8.748995381847642e-07	7.104010198198195e-07	3.587857456221472e-08	4.921735746192204e-07	-8.279206724839889e-07
0.01	-0.007055611512534441	0.1314640176282599	0.9332001819206448	0.1942195375288191	-0.2295235517011694	-0.2328027788032856	-0.2907849631557707	0.2319669328797391	0.2319669328797432	0.1360110085937276	0.1657226109644259	0.08955821100706764	0.06213484300934068	-0.0335339340939915	-0.0283897092538081	-0.01335705617017548	0.1588405338464035	0.001683725510025126	0.03402538323013797	-0.08057238110598058	0.1569041691816534	0.1569041691816559	-0.04333115129792181	0.006159897181515963	0.04270109111178257	0.01395656982049416	0.131198017212813	-0.07350973890264748	0.005008375057218847	-0.2462779828479311	0.1084653897527948	-0.08604136351837734	-0.05619604120944777	-29.71638582213932	-10.15341088082274	-34.22162991165704	0.2534912647498827	13.73959666785963	-585.8144444913019	47.55040375174816	-3.226389624310395	-2.774359112152044	-1.311581845839441	15.51086379660257	0.1857511108115544	3.383908990861306	-7.952031269645431	15.39880282156425	15.39880282156314	-4.289052817760641	0.5403541368899598	4.219794595287268	1.403521059421128	1.613538893614455e-07	5.079713806539199e-08	-1.118097195917129e-06	8.648805850475681e-07	8.793690517447518e-08	2.487616718805773e-07	-1.034483905267558e-06
0.02	-0.007555214720538051	0.1310433048899804	0.9330005258449396	0.1965814559042193	-0.2294996253564387	-0.2322956006154284	-0.2919770260341401	0.2343015670562646	0.234301567056265	0.1353692298054833	0.1658131519918959	0.09019524324267149	0.06234166025800941	-0.06625042729293829	-0.0555475797876343	-0.02654695577463357	0.3127155467384644	0.00304843986776436	0.06728100554275668	-0.1571792810381704	0.3092657266246692	0.3092657266246729	-0.08469648333211414	0.01187289334462729	0.08456586950311162	0.02730605690265936	0.1259312352949072	-0.07635732517538993	0.005352451399719529	-0.2433059489004375	0.1057273410379054	-0.08158937156590547	-0.05107072107018487	-29.74094469060097	-10.72656597263341	-32.33271972357741	-0.111348394357962	12.59462889563351	-585.7480224529623	50.58994387176583	-3.403040755814832	-2.660234871843935	-1.342164017946247	15.38905232213029	0.05386264331322355	3.24735675793886	-7.276281499055314	15.13799217670809	15.13799217671074	-3.929784937922765	0.6555356260737482	4.161659962846858	1.228158142723712	2.008645259917869e-07	2.723023712655338e-08	-1.361294853649493e-06	1.019360150275317e-06	1.399952357867356e-07	5.349769141934228e-09	-1.241047138051126e-06
0.03	-0.008378797241436598	0.1303565310567073	0.9326690830600206	0.2004592874891841	-0.2294636391277872	-0.2314618310447188	-0.2939156908073036	0.2381374948404212	0.2381374948404231	0.1343236662065797	0.1659601291649177	0.09124583470435854	0.06267877930173948	-0.09833092782045745	-0.08166439258108298	-0.03976997083664169	0.462118137158926	0.004131057005923255	0.0992626781747179	-0.2300270138187507	0.4571691470756624	0.4571691470756654	-0.1241412749825082	0.0174522355433507	0.1253328784425135	0.04004432371137005	0.1194709553776083	-0.07091974100503914	0.00583572932711829	-0.2380714348545305	0.1003910465303633	-0.08169362579957119	-0.04573631372655158	-29.77995718317049	-12.35896624634416	-32.66213066855443	-0.06076040720917814	12.80367419836279	-584.943414813083	48.45418037179607	-3.090273561425296	-2.565957130711682	-1.316625607986324	14.60597394300982	0.132790139841487	3.142245047982427	-7.21002020130634	14.50387417708761	14.50387417708615	-3.910697853311932	0.4987887875946681	4.001308236135031	1.285554661203922	2.015756726725159e-07	1.249326105927995e-08	-1.299452036341337e-06	1.069424605736012e-06	1.512318860216706e-07	-1.365504740304992e-07	-1.249128966322207e-06
0.04	-0.009519128539648739	0.1294128785659765	0.9322045590529501	0.2058091672865575	-0.2294173609495996	-0.2303145102412566	-0.2965670331150206	0.2434299282686458	0.2434299282686478	0.1328918803762013	0.1661608308140995	0.09269751363077083	0.06314105975580843	-0.1296001827561785	-0.106923311279156	-0.0531632002049293	0.6071251892196216	0.005106829775058193	0.1299912520929867	-0.2997147879492159	0.6005668554383632	0.6005668554383646	-0.1619409296214683	0.02261778857499383	0.1647833624478428	0.05233833897044684	0.1130106754603177	-0.06548215683470429	0.006319007254538754	-0.2328369208086228	0.09505475202281606	-0.08179788003325808	-0.04040190638290659	-29.83080842571319	-13.87737079763516	-33.00127593341598	0.02529910909243189	13.10907077602599	-582.2652991212861	45.89397980581342	-3.240791637455266	-2.488656052768762	-1.37620687920215	14.50994465017707	0.03249376950843415	2.996737015200382	-6.64428976903235	14.2368497590496	14.23684975905212	-3.600757535635986	0.5727777926576824	3.898354976032394	1.139307832796949	2.014868298697477e-07	-2.061654701363286e-09	-1.23131972470245e-06	1.117336172335531e-06	1.616268521251142e-07	-2.763576932943509e-07	-1.253118394500247e-06
0.05	-0.01096898035990072	0.1282212494567828	0.9316046530209326	0.2125877552812423	-0.2293624367288747	-0.2288671346743804	-0.2998979444961163	0.250134072720969	0.2501340727209708	0.1310916708401417	0.166411974241374	0.0945372518433137	0.06372345048113091	-0.1602068576227583	-0.131224178086242	-0.06688484798089096	0.747776549436125	0.005864353383649707	0.1592794189259578	-0.365917208035934	0.739478088923883	0.7394780889238957	-0.197802305163935	0.02748222986497456	0.2029672019330349	0.06408218750343342	0.1061450992357614	-0.06588957931075662	0.006832200769063608	-0.2288578442607019	0.0904028467996722	-0.07685176875819191	-0.03483842168479918	-29.89047950557888	-14.87469555514302	-31.00389846205042	-0.3204438046291124	12.57226141956681	-579.4405944243847	48.1716254044678	-2.946090328990247	-2.374019714199944	-1.380226395444889	13.72036212900642	0.09536470769119601	2.864407629373646	-6.525676093481158	13.60062793126694	13.60062793126711	-3.53411036341122	0.4241915413610342	3.748847055143287	1.183222593752437	1.763847393979884e-07	-1.79801045006174e-08	-9.864473647841863e-07	1.069265886861375e-06	1.537852245565688e-07	-3.821138023892409e-07	-1.12266422558013e-06
